<?xml version="1.0" encoding="UTF-8"?>
<svg xmlns="http://www.w3.org/2000/svg" xmlns:xlink="http://www.w3.org/1999/xlink" viewBox="0 0 401.62 414.36">
  <defs>
    <style>
      .cls-1 {
        fill: url(#linear-gradient-19);
      }

      .cls-1, .cls-2, .cls-3, .cls-4, .cls-5, .cls-6, .cls-7, .cls-8, .cls-9, .cls-10, .cls-11, .cls-12, .cls-13, .cls-14, .cls-15, .cls-16, .cls-17, .cls-18, .cls-19, .cls-20, .cls-21, .cls-22, .cls-23, .cls-24, .cls-25, .cls-26, .cls-27, .cls-28, .cls-29, .cls-30, .cls-31, .cls-32, .cls-33, .cls-34, .cls-35, .cls-36, .cls-37, .cls-38, .cls-39, .cls-40, .cls-41, .cls-42, .cls-43, .cls-44, .cls-45, .cls-46, .cls-47, .cls-48, .cls-49, .cls-50, .cls-51, .cls-52, .cls-53, .cls-54, .cls-55, .cls-56, .cls-57, .cls-58, .cls-59, .cls-60, .cls-61, .cls-62, .cls-63 {
        stroke-width: 0px;
      }

      .cls-1, .cls-7, .cls-8, .cls-16, .cls-17, .cls-24, .cls-45, .cls-55, .cls-62, .cls-64 {
        mix-blend-mode: multiply;
      }

      .cls-2 {
        fill: url(#linear-gradient-12);
      }

      .cls-3 {
        fill: url(#linear-gradient-17);
      }

      .cls-4 {
        fill: #e2f3f8;
      }

      .cls-5 {
        fill: url(#linear-gradient-33);
      }

      .cls-6 {
        fill: url(#linear-gradient);
      }

      .cls-7 {
        fill: url(#radial-gradient-2);
      }

      .cls-8, .cls-29 {
        fill: #ecf7f8;
      }

      .cls-9 {
        fill: url(#linear-gradient-21);
      }

      .cls-10 {
        fill: url(#linear-gradient-6);
      }

      .cls-11 {
        fill: #93dcd7;
      }

      .cls-12 {
        fill: #33587c;
      }

      .cls-13 {
        fill: #96a2af;
      }

      .cls-14 {
        fill: #d9eff1;
      }

      .cls-15 {
        fill: #5d595d;
      }

      .cls-65 {
        isolation: isolate;
      }

      .cls-16, .cls-37 {
        fill: #dcf3e7;
      }

      .cls-17 {
        fill: #898889;
      }

      .cls-17, .cls-55 {
        opacity: .5;
      }

      .cls-18 {
        fill: #d08b6f;
      }

      .cls-19 {
        fill: url(#linear-gradient-11);
      }

      .cls-20 {
        fill: url(#linear-gradient-5);
      }

      .cls-21 {
        fill: url(#linear-gradient-31);
      }

      .cls-22 {
        fill: #7aaffd;
      }

      .cls-23 {
        fill: url(#linear-gradient-34);
      }

      .cls-24, .cls-54 {
        fill: #de604f;
      }

      .cls-25 {
        fill: url(#linear-gradient-23);
      }

      .cls-26 {
        fill: url(#linear-gradient-25);
      }

      .cls-27 {
        fill: url(#linear-gradient-16);
      }

      .cls-28 {
        fill: url(#linear-gradient-22);
      }

      .cls-30 {
        fill: #fff;
      }

      .cls-31 {
        fill: url(#linear-gradient-35);
      }

      .cls-32 {
        fill: #dde4ee;
      }

      .cls-33 {
        fill: url(#linear-gradient-32);
      }

      .cls-34 {
        fill: url(#linear-gradient-20);
      }

      .cls-35 {
        fill: url(#linear-gradient-14);
      }

      .cls-36 {
        fill: url(#linear-gradient-2);
      }

      .cls-38 {
        fill: url(#linear-gradient-7);
      }

      .cls-39 {
        fill: url(#linear-gradient-3);
      }

      .cls-40 {
        fill: url(#radial-gradient-5);
      }

      .cls-41 {
        fill: url(#linear-gradient-9);
      }

      .cls-42 {
        fill: url(#linear-gradient-27);
      }

      .cls-43 {
        fill: url(#radial-gradient);
      }

      .cls-44 {
        fill: #d8a089;
      }

      .cls-45 {
        fill: url(#radial-gradient-4);
      }

      .cls-46 {
        fill: url(#linear-gradient-8);
      }

      .cls-47 {
        fill: url(#linear-gradient-24);
      }

      .cls-48 {
        fill: url(#linear-gradient-26);
      }

      .cls-49 {
        fill: url(#linear-gradient-18);
      }

      .cls-50 {
        fill: url(#linear-gradient-30);
      }

      .cls-51 {
        fill: url(#linear-gradient-29);
      }

      .cls-52 {
        fill: #d4957b;
      }

      .cls-53 {
        fill: #2f2e2f;
      }

      .cls-55 {
        fill: url(#linear-gradient-15);
      }

      .cls-56 {
        fill: url(#linear-gradient-28);
      }

      .cls-57 {
        fill: #821248;
      }

      .cls-58 {
        fill: url(#linear-gradient-10);
      }

      .cls-59 {
        fill: url(#radial-gradient-3);
      }

      .cls-60 {
        fill: #fffffd;
      }

      .cls-61 {
        fill: url(#linear-gradient-4);
      }

      .cls-62 {
        fill: url(#linear-gradient-13);
      }

      .cls-63 {
        fill: #f2f2f2;
      }
    </style>
    <linearGradient id="linear-gradient" x1="74.13" y1="333.66" x2="50.75" y2="226.11" gradientUnits="userSpaceOnUse">
      <stop offset="0" stop-color="#33827a"/>
      <stop offset=".63" stop-color="#5dad9e"/>
      <stop offset="1" stop-color="#78c9b5"/>
    </linearGradient>
    <linearGradient id="linear-gradient-2" x1="94.37" y1="329.26" x2="70.99" y2="221.71" xlink:href="#linear-gradient"/>
    <linearGradient id="linear-gradient-3" x1="94.37" y1="329.26" x2="70.99" y2="221.71" xlink:href="#linear-gradient"/>
    <linearGradient id="linear-gradient-4" x1="109.35" y1="326.01" x2="85.97" y2="218.46" xlink:href="#linear-gradient"/>
    <linearGradient id="linear-gradient-5" x1="109.35" y1="326.01" x2="85.97" y2="218.46" xlink:href="#linear-gradient"/>
    <linearGradient id="linear-gradient-6" x1="126.9" y1="322.19" x2="103.51" y2="214.64" xlink:href="#linear-gradient"/>
    <linearGradient id="linear-gradient-7" x1="126.9" y1="322.19" x2="103.51" y2="214.64" xlink:href="#linear-gradient"/>
    <linearGradient id="linear-gradient-8" x1="67.79" y1="326.13" x2="115.27" y2="326.13" gradientUnits="userSpaceOnUse">
      <stop offset="0" stop-color="#de604f"/>
      <stop offset=".27" stop-color="#db5b4c"/>
      <stop offset=".53" stop-color="#d54f45"/>
      <stop offset=".79" stop-color="#cb3b39"/>
      <stop offset=".99" stop-color="#c1272d"/>
    </linearGradient>
    <linearGradient id="linear-gradient-9" x1="80.2" y1="359.62" x2="102.93" y2="359.62" xlink:href="#linear-gradient-8"/>
    <linearGradient id="linear-gradient-10" x1="91.36" y1="318.39" x2="91.36" y2="340.41" gradientUnits="userSpaceOnUse">
      <stop offset="0" stop-color="#5288f5"/>
      <stop offset=".2" stop-color="#5f91f6"/>
      <stop offset=".56" stop-color="#81acf9"/>
      <stop offset="1" stop-color="#b4d2fe"/>
    </linearGradient>
    <linearGradient id="linear-gradient-11" x1="264.62" y1="92.89" x2="286.57" y2="92.89" xlink:href="#linear-gradient"/>
    <linearGradient id="linear-gradient-12" x1="291.52" y1="253.05" x2="281.17" y2="79.72" xlink:href="#linear-gradient"/>
    <linearGradient id="linear-gradient-13" x1="337.2" y1="344.73" x2="292.48" y2="176.95" xlink:href="#linear-gradient"/>
    <linearGradient id="linear-gradient-14" x1="315.68" y1="219.99" x2="263.18" y2="60.99" xlink:href="#linear-gradient"/>
    <linearGradient id="linear-gradient-15" x1="296.03" y1="137.39" x2="326.95" y2="137.39" xlink:href="#linear-gradient"/>
    <linearGradient id="linear-gradient-16" x1="292.46" y1="110.45" x2="295.6" y2="63.8" xlink:href="#linear-gradient"/>
    <linearGradient id="linear-gradient-17" x1="317.57" y1="213.62" x2="303.56" y2="148.13" xlink:href="#linear-gradient"/>
    <linearGradient id="linear-gradient-18" x1="278.14" y1="222.06" x2="264.13" y2="156.57" xlink:href="#linear-gradient"/>
    <linearGradient id="linear-gradient-19" x1="309.02" y1="387.29" x2="264.31" y2="219.5" xlink:href="#linear-gradient"/>
    <linearGradient id="linear-gradient-20" x1="215.86" y1="164.73" x2="213.33" y2="151.64" gradientUnits="userSpaceOnUse">
      <stop offset=".01" stop-color="#ccc"/>
      <stop offset=".25" stop-color="#c9c9c9"/>
      <stop offset=".43" stop-color="#c0bfc0"/>
      <stop offset=".59" stop-color="#b0afb0"/>
      <stop offset=".73" stop-color="#9b999b"/>
      <stop offset=".86" stop-color="#7f7c7f"/>
      <stop offset=".99" stop-color="#5e5a5e"/>
      <stop offset=".99" stop-color="#5d595d"/>
    </linearGradient>
    <linearGradient id="linear-gradient-21" x1="270.35" y1="172.48" x2="272.04" y2="149.67" xlink:href="#linear-gradient-20"/>
    <linearGradient id="linear-gradient-22" x1="89.76" y1="331.54" x2="160.27" y2="331.54" xlink:href="#linear-gradient-20"/>
    <linearGradient id="linear-gradient-23" x1="116.97" y1="331.16" x2="144.5" y2="331.16" xlink:href="#linear-gradient-20"/>
    <linearGradient id="linear-gradient-24" x1="88.74" y1="330.68" x2="160.27" y2="330.68" xlink:href="#linear-gradient-20"/>
    <radialGradient id="radial-gradient" cx="129.64" cy="330.22" fx="129.64" fy="330.22" r="40.87" gradientTransform="translate(0 -332.73) scale(1 2.01)" gradientUnits="userSpaceOnUse">
      <stop offset="0" stop-color="#2f2e2f"/>
      <stop offset=".35" stop-color="#313031"/>
      <stop offset=".6" stop-color="#3b393b"/>
      <stop offset=".82" stop-color="#4b484b"/>
      <stop offset=".99" stop-color="#5d595d"/>
    </radialGradient>
    <radialGradient id="radial-gradient-2" cx="127.7" cy="330.22" fx="127.7" fy="330.22" r="58.34" gradientTransform="matrix(1,0,0,1,0,0)" xlink:href="#radial-gradient"/>
    <linearGradient id="linear-gradient-25" x1="85.46" y1="329.69" x2="204.48" y2="271.88" xlink:href="#linear-gradient-20"/>
    <linearGradient id="linear-gradient-26" x1="151.39" y1="375.01" x2="124.19" y2="404.16" gradientUnits="userSpaceOnUse">
      <stop offset="0" stop-color="#5d595d"/>
      <stop offset="0" stop-color="#5e5a5e"/>
      <stop offset=".14" stop-color="#7f7c7f"/>
      <stop offset=".27" stop-color="#9b999b"/>
      <stop offset=".41" stop-color="#b0afb0"/>
      <stop offset=".57" stop-color="#c0bfc0"/>
      <stop offset=".75" stop-color="#c9c9c9"/>
      <stop offset=".99" stop-color="#ccc"/>
    </linearGradient>
    <linearGradient id="linear-gradient-27" x1="257.69" y1="232.56" x2="238.26" y2="226.85" gradientUnits="userSpaceOnUse">
      <stop offset="0" stop-color="#5d595d"/>
      <stop offset=".04" stop-color="#6a676a"/>
      <stop offset=".13" stop-color="#8a878a"/>
      <stop offset=".16" stop-color="#8e8b8e"/>
      <stop offset=".55" stop-color="#c4c2c4"/>
      <stop offset=".84" stop-color="#e5e5e5"/>
      <stop offset="1" stop-color="#f2f2f2"/>
    </linearGradient>
    <linearGradient id="linear-gradient-28" x1="187.31" y1="254.79" x2="260.81" y2="173.85" xlink:href="#linear-gradient-8"/>
    <linearGradient id="linear-gradient-29" x1="211.92" y1="286.69" x2="164.03" y2="161.69" xlink:href="#linear-gradient-10"/>
    <linearGradient id="linear-gradient-30" x1="160.19" y1="235.73" x2="233.5" y2="235.73" gradientUnits="userSpaceOnUse">
      <stop offset="0" stop-color="#5288f5"/>
      <stop offset="1" stop-color="#7aaffd"/>
    </linearGradient>
    <linearGradient id="linear-gradient-31" x1="186.68" y1="203.46" x2="216.45" y2="203.46" xlink:href="#linear-gradient-30"/>
    <linearGradient id="linear-gradient-32" x1="128.11" y1="340.74" x2="247.13" y2="282.93" xlink:href="#linear-gradient-20"/>
    <linearGradient id="linear-gradient-33" x1="209.14" y1="331.91" x2="282.7" y2="331.91" xlink:href="#linear-gradient-20"/>
    <radialGradient id="radial-gradient-3" cx="244.26" cy="331.91" fx="244.26" fy="331.91" r="39.59" gradientTransform="translate(0 -270.95) scale(1 1.82)" xlink:href="#radial-gradient"/>
    <radialGradient id="radial-gradient-4" cx="242.33" cy="331.91" fx="242.33" fy="331.91" r="58.34" gradientTransform="matrix(1,0,0,1,0,0)" xlink:href="#radial-gradient"/>
    <radialGradient id="radial-gradient-5" cx="246.2" cy="330.57" fx="246.2" fy="330.57" r="11.23" gradientTransform="translate(0 -176.78) scale(1 1.53)" gradientUnits="userSpaceOnUse">
      <stop offset=".01" stop-color="#ccc"/>
      <stop offset=".25" stop-color="#c9c9c9"/>
      <stop offset=".43" stop-color="#c0bfc0"/>
      <stop offset=".59" stop-color="#b0afb0"/>
      <stop offset=".73" stop-color="#9b999b"/>
      <stop offset=".86" stop-color="#7f7c7f"/>
      <stop offset=".99" stop-color="#5e5a5e"/>
      <stop offset=".99" stop-color="#5d595d"/>
    </radialGradient>
    <linearGradient id="linear-gradient-34" x1="221.14" y1="331.94" x2="288.26" y2="331.94" xlink:href="#linear-gradient-20"/>
    <linearGradient id="linear-gradient-35" x1="303.68" y1="96.65" x2="322.23" y2="96.65" xlink:href="#linear-gradient"/>
  </defs>
  <g class="cls-65">
    <g id="Layer_2" data-name="Layer 2">
      <g id="OBJECTS">
        <g>
          <g class="cls-64">
            <g>
              <rect class="cls-37" y="324.69" width="401.62" height="1.31"/>
              <rect class="cls-37" y="328.26" width="401.62" height="1.31"/>
            </g>
            <g>
              <path class="cls-37" d="m373.84,217.07c-1.99,10.89-5.13,21.65-9.48,31.85-5.9,13.85-14.05,26.67-24.66,37.33-18.41,18.5-44.71,29.87-70.68,27.29-27.28-2.71-51.11-19.92-69.75-40.02-18.72-20.2-35.12-44.9-60.98-54.4-11.99-4.4-24.98-5.08-37.88-5.91-13.83-.9-27.56-1.98-39.83-8.08-15.08-7.48-26.05-22.04-30.86-38.17C8.91,97.18,85.5,34.63,140.46,8.59,150.3,3.93,160.77-.26,171.65.01c17.69.45,33.23,12.83,42.86,27.68,9.63,14.85,14.58,32.14,20.65,48.76,6.08,16.63,13.8,33.39,27.33,44.81,16.54,13.96,39.02,17.8,59.8,23.84,19.83,5.77,40.78,15.79,49.26,34.29.41.9.8,1.82,1.15,2.75,4.14,11.05,3.27,23.33,1.14,34.93Z"/>
              <path class="cls-16" d="m364.36,248.92c-5.9,13.85-14.05,26.67-24.66,37.33-18.41,18.5-44.71,29.87-70.68,27.29-27.28-2.71-51.11-19.92-69.75-40.02-18.72-20.2-35.12-44.9-60.98-54.4-11.99-4.4-24.98-5.08-37.88-5.91l-29.75-36.23,147.02-108.47,146.68,180.41Z"/>
              <path class="cls-37" d="m318.06,81.03c-5.55-6.25-13.11-11.32-21.35-10.7-21.45,1.61-22.72,29.79-13.93,43.92,4.43,7.11,11.85,12.51,20.15,13.66,8.3,1.15,17.29-2.33,21.99-9.26,3.65-5.39,4.53-12.37,3.23-18.75-1.3-6.38-4.62-12.21-8.72-17.27-.44-.54-.89-1.07-1.36-1.6Z"/>
              <path class="cls-37" d="m133.43,237.39c-2.66-2.99-6.28-5.42-10.23-5.12-10.27.77-10.88,14.27-6.67,21.03,2.12,3.41,5.67,5.99,9.65,6.54,3.97.55,8.28-1.12,10.53-4.44,1.75-2.58,2.17-5.92,1.54-8.98-.62-3.06-2.21-5.85-4.18-8.27-.21-.26-.43-.51-.65-.77Z"/>
              <path class="cls-37" d="m68.16,214.41c-7.05.15-14.23,2.21-17.73,7.73-9.11,14.37,10.13,30.22,24.28,32.23,7.12,1.01,14.47-.78,19.24-5.39,4.77-4.61,6.62-12.13,3.98-18.8-2.05-5.18-6.54-9.46-11.66-12.05s-10.81-3.61-16.33-3.73c-.59-.01-1.18-.01-1.78,0Z"/>
              <path class="cls-37" d="m277.46,48.16c-2.74-3.13-6.48-5.66-10.56-5.35-10.61.81-11.23,14.9-6.89,21.96,2.19,3.56,5.86,6.25,9.96,6.83,4.1.57,8.55-1.16,10.87-4.63,1.81-2.69,2.24-6.18,1.6-9.37-.64-3.19-2.29-6.11-4.31-8.64-.22-.27-.44-.54-.67-.8Z"/>
            </g>
          </g>
          <g>
            <polygon class="cls-13" points="146.1 68.51 142.24 68.51 70.66 68.51 70.66 176.98 142.24 176.98 146.1 176.98 217.68 176.98 217.68 68.51 146.1 68.51"/>
            <g>
              <g>
                <rect class="cls-4" x="145.77" y="72.71" width="31.63" height="30.55"/>
                <rect class="cls-4" x="145.77" y="107.64" width="31.63" height="30.55"/>
                <rect class="cls-4" x="145.77" y="142.58" width="31.63" height="30.55"/>
              </g>
              <g>
                <rect class="cls-4" x="182.09" y="72.71" width="31.62" height="30.55"/>
                <rect class="cls-4" x="182.09" y="107.64" width="31.62" height="30.55"/>
                <rect class="cls-4" x="182.09" y="142.58" width="31.62" height="30.55"/>
              </g>
              <polygon class="cls-30" points="182.09 72.71 213.71 97.06 213.71 92.44 188.08 72.71 182.09 72.71"/>
              <polygon class="cls-30" points="211.6 103.26 182.09 80.54 182.09 85.15 205.61 103.26 211.6 103.26"/>
              <polygon class="cls-30" points="149.77 72.71 177.4 93.98 177.4 89.36 155.76 72.71 149.77 72.71"/>
              <polygon class="cls-30" points="184.98 107.64 182.09 107.64 182.09 110.03 213.71 134.37 213.71 129.76 184.98 107.64"/>
              <polygon class="cls-30" points="145.77 77.46 145.77 82.07 173.29 103.26 177.4 103.26 177.4 101.8 145.77 77.46"/>
              <polygon class="cls-30" points="208.51 138.19 182.09 117.86 182.09 122.47 202.5 138.19 208.51 138.19"/>
              <polygon class="cls-30" points="146.67 107.64 177.4 131.3 177.4 126.68 152.67 107.64 146.67 107.64"/>
              <polygon class="cls-30" points="145.77 102.34 145.77 103.26 146.97 103.26 145.77 102.34"/>
              <polygon class="cls-30" points="213.71 167.08 182.09 142.74 182.09 147.35 213.71 171.69 213.71 167.08"/>
              <polygon class="cls-30" points="177.4 142.58 175.88 142.58 177.4 143.74 177.4 142.58"/>
              <polygon class="cls-30" points="145.77 114.78 145.77 119.39 170.19 138.19 176.19 138.19 145.77 114.78"/>
              <polygon class="cls-30" points="205.4 173.12 182.09 155.18 182.09 159.79 199.41 173.12 205.4 173.12"/>
              <polygon class="cls-30" points="145.77 142.58 145.77 144.27 177.4 168.62 177.4 164 149.57 142.58 145.77 142.58"/>
              <polygon class="cls-30" points="145.77 152.1 145.77 156.71 167.09 173.12 173.08 173.12 145.77 152.1"/>
            </g>
            <g>
              <g>
                <rect class="cls-4" x="74.19" y="72.71" width="31.63" height="30.55"/>
                <rect class="cls-4" x="74.19" y="107.64" width="31.63" height="30.55"/>
                <rect class="cls-4" x="74.19" y="142.58" width="31.63" height="30.55"/>
              </g>
              <g>
                <rect class="cls-4" x="110.51" y="72.71" width="31.62" height="30.55"/>
                <rect class="cls-4" x="110.51" y="107.64" width="31.62" height="30.55"/>
                <rect class="cls-4" x="110.51" y="142.58" width="31.62" height="30.55"/>
              </g>
              <polygon class="cls-30" points="110.51 72.71 142.13 97.06 142.13 92.44 116.5 72.71 110.51 72.71"/>
              <polygon class="cls-30" points="140.02 103.26 110.51 80.54 110.51 85.15 134.03 103.26 140.02 103.26"/>
              <polygon class="cls-30" points="78.19 72.71 105.82 93.98 105.82 89.36 84.18 72.71 78.19 72.71"/>
              <polygon class="cls-30" points="113.4 107.64 110.51 107.64 110.51 110.03 142.13 134.37 142.13 129.76 113.4 107.64"/>
              <polygon class="cls-30" points="74.19 77.46 74.19 82.07 101.71 103.26 105.82 103.26 105.82 101.8 74.19 77.46"/>
              <polygon class="cls-30" points="136.93 138.19 110.51 117.86 110.51 122.47 130.92 138.19 136.93 138.19"/>
              <polygon class="cls-30" points="75.09 107.64 105.82 131.3 105.82 126.68 81.09 107.64 75.09 107.64"/>
              <polygon class="cls-30" points="74.19 102.34 74.19 103.26 75.39 103.26 74.19 102.34"/>
              <polygon class="cls-30" points="142.13 167.08 110.51 142.74 110.51 147.35 142.13 171.69 142.13 167.08"/>
              <polygon class="cls-30" points="105.82 142.58 104.3 142.58 105.82 143.74 105.82 142.58"/>
              <polygon class="cls-30" points="74.19 114.78 74.19 119.39 98.61 138.19 104.61 138.19 74.19 114.78"/>
              <polygon class="cls-30" points="133.82 173.12 110.51 155.18 110.51 159.79 127.83 173.12 133.82 173.12"/>
              <polygon class="cls-30" points="74.19 142.58 74.19 144.27 105.82 168.62 105.82 164 77.99 142.58 74.19 142.58"/>
              <polygon class="cls-30" points="74.19 152.1 74.19 156.71 95.51 173.12 101.5 173.12 74.19 152.1"/>
            </g>
          </g>
          <g>
            <ellipse class="cls-63" cx="92.78" cy="359.93" rx="26.66" ry="7.48"/>
            <g>
              <g>
                <path class="cls-6" d="m47.22,280.6c7.6-2.83.79-6.25-3.96-7.63-3.84-1.11-13.47-2.95-9.51-9.5,4.14-6.85,8.01,1.67,11.26,2.65,7.27,2.19-.25-7-2.04-9.44-2.46-3.35-7.63-10.21-1.18-11.3,5.21-.88,10.56,6.41,12.7,10.04,1.52,2.59,5.23,14.69,9.19,12.04,3-2.01-.01-14.12,7.06-5.43,2.87,3.53,2.37,9.18,3.65,13.2,1.87,5.9,2.66,8.34,7.9,6.87,2.71-.77,2.82-4.16,6.15-1.85,1.71,1.19,2.19,6.64,2.16,8.53-.25,17.35-7.26,28.93-10.55,30.41-4.44,2-12.66-.98-16.43-3.19-1.88-1.09-5.3-2.91-5.04-5.65.29-3.08,5.04-2.6,5.23-4.41.53-5.12-8.93-.29-11.54-1.04-3.38-.97-8.94-7.05-5.37-10.22.37-.33,15.12-1.3,6.71-6.05-4.65-2.63-9.71,4.55-14.18-.6-6.43-7.41,4.95-6.37,7.8-7.44Z"/>
                <g class="cls-64">
                  <path class="cls-6" d="m47.22,280.6c7.6-2.83.79-6.25-3.96-7.63-3.84-1.11-13.47-2.95-9.51-9.5,4.14-6.85,8.01,1.67,11.26,2.65,7.27,2.19-.25-7-2.04-9.44-2.46-3.35-7.63-10.21-1.18-11.3,5.21-.88,10.56,6.41,12.7,10.04,1.52,2.59,5.23,14.69,9.19,12.04,3-2.01-.01-14.12,7.06-5.43,2.87,3.53,2.37,9.18,3.65,13.2,1.87,5.9,2.66,8.34,7.9,6.87,2.71-.77,2.82-4.16,6.15-1.85,1.71,1.19,2.19,6.64,2.16,8.53-.25,17.35-7.26,28.93-10.55,30.41-4.44,2-12.66-.98-16.43-3.19-1.88-1.09-5.3-2.91-5.04-5.65.29-3.08,5.04-2.6,5.23-4.41.53-5.12-8.93-.29-11.54-1.04-3.38-.97-8.94-7.05-5.37-10.22.37-.33,15.12-1.3,6.71-6.05-4.65-2.63-9.71,4.55-14.18-.6-6.43-7.41,4.95-6.37,7.8-7.44Z"/>
                </g>
                <path class="cls-11" d="m48.46,283.34c3.27-1.35,6.64-2.57,10.19-2.85-2.47-3.13-5.07-6.24-6.94-9.71-.53-.98,1.07-1.64,1.6-.67.23.42.48.83.73,1.25.28-1.06-.04-2.64-.13-3.48-.24-2.18-1.05-4.14-1.89-6.15-.43-1.03,1.16-1.7,1.6-.67,1.1,2.6,1.96,5.08,2.13,7.92.09,1.39.16,2.9-.66,4.05,2.66,4,5.97,7.69,8.74,11.56,1.21-1.89,2.1-3.85,2.52-6.09.46-2.44.17-4.93.44-7.39.12-1.11,1.84-.88,1.72.23-.32,2.96,0,5.86-.76,8.78-.57,2.2-1.59,4.13-2.85,6,3.18,4.67,6.12,9.52,8.53,14.64.8,1.7,1.53,3.43,2.23,5.17,1.63-2.4,2.98-4.91,3.93-7.68.53-1.54,1.11-3.17,1.33-4.78.16-1.22.04-2.38.53-3.54.43-1.03,2.04-.37,1.6.65-.6,1.42-.41,3.27-.8,4.79-.37,1.46-.83,2.92-1.35,4.34-1.06,2.9-2.61,5.53-4.4,8.05-.03.04-.06.05-.09.08,1.19,3.01,2.35,6.03,3.68,8.98.11.08.2.19.26.35.13.33.38.79.46,1.19,2.36,6.08,4.74,12.16,7.03,18.27.39,1.04-1.2,1.72-1.6.67-2.28-6.09-4.65-12.15-7.01-18.21-.01-.03-.04-.04-.05-.07-.76-1.59-1.45-3.21-2.12-4.84-3.15.78-6.65-.16-9.58-1.36-1.03-.42-.38-2.03.65-1.6,2.55,1.04,5.5,1.86,8.26,1.33-1.49-3.73-2.89-7.5-4.59-11.13-.68-1.45-1.4-2.87-2.16-4.27-.06.04-.1.09-.18.12-4.3,1.71-8.94,2.38-13.53,1.63-1.1-.18-.88-1.9.23-1.72,4.3.7,8.6.1,12.64-1.51,0,0,.02,0,.02,0-2.34-4.14-4.98-8.11-7.75-11.97-.47-.66-.96-1.31-1.46-1.95-.1.24-.3.43-.65.45-3.44.25-6.68,1.43-9.84,2.74-1.03.43-1.7-1.17-.67-1.6Z"/>
              </g>
              <g>
                <path class="cls-36" d="m96.01,268.19c-7.98,1.46-3.88-4.97-.5-8.58,2.73-2.92,10.06-9.43,3.31-13.03-7.07-3.77-6.03,5.54-8.32,8.04-5.12,5.6-3.37-6.14-3.08-9.16.39-4.14,1.33-12.67-4.77-10.31-4.93,1.91-5.79,10.91-5.77,15.12.02,3,3.03,15.3-1.73,15.04-3.6-.19-7.22-12.13-8.84-1.05-.66,4.51,2.66,9.09,3.62,13.21,1.41,6.03,1.98,8.53-3.27,9.94-2.72.73-4.56-2.13-6.23,1.56-.86,1.9,1.52,6.82,2.51,8.43,9.1,14.78,21.05,21.13,24.62,20.72,4.84-.56,10.37-7.33,12.49-11.15,1.05-1.9,3.07-5.21,1.44-7.43-1.83-2.49-5.66.34-6.75-1.11-3.08-4.13,7.52-4.82,9.38-6.8,2.4-2.56,4.07-10.63-.62-11.53-.48-.09-13.65,6.62-8.86-1.76,2.65-4.64,10.67-1.06,11.87-7.77,1.73-9.66-7.51-2.94-10.5-2.4Z"/>
                <path class="cls-39" d="m96.01,268.19c-7.98,1.46-3.88-4.97-.5-8.58,2.73-2.92,10.06-9.43,3.31-13.03-7.07-3.77-6.03,5.54-8.32,8.04-5.12,5.6-3.37-6.14-3.08-9.16.39-4.14,1.33-12.67-4.77-10.31-4.93,1.91-5.79,10.91-5.77,15.12.02,3,3.03,15.3-1.73,15.04-3.6-.19-7.22-12.13-8.84-1.05-.66,4.51,2.66,9.09,3.62,13.21,1.41,6.03,1.98,8.53-3.27,9.94-2.72.73-4.56-2.13-6.23,1.56-.86,1.9,1.52,6.82,2.51,8.43,9.1,14.78,21.05,21.13,24.62,20.72,4.84-.56,10.37-7.33,12.49-11.15,1.05-1.9,3.07-5.21,1.44-7.43-1.83-2.49-5.66.34-6.75-1.11-3.08-4.13,7.52-4.82,9.38-6.8,2.4-2.56,4.07-10.63-.62-11.53-.48-.09-13.65,6.62-8.86-1.76,2.65-4.64,10.67-1.06,11.87-7.77,1.73-9.66-7.51-2.94-10.5-2.4Z"/>
                <path class="cls-11" d="m96.34,271.18c-3.5.51-7.02,1.19-10.21,2.77.52-3.96,1.16-7.95.99-11.9-.05-1.11-1.76-.86-1.71.24.02.48.01.97.01,1.45-.78-.76-1.32-2.29-1.67-3.06-.91-2-1.22-4.1-1.52-6.25-.15-1.1-1.87-.86-1.71.24.39,2.79.92,5.37,2.22,7.89.64,1.24,1.35,2.58,2.64,3.14-.24,4.79-1.2,9.66-1.59,14.41-2-1-3.77-2.24-5.28-3.95-1.64-1.86-2.67-4.14-4.16-6.12-.67-.89-2.03.18-1.36,1.07,1.79,2.37,3,5.04,5.15,7.15,1.62,1.59,3.48,2.73,5.52,3.69-.35,5.64-.39,11.31.17,16.94.18,1.87.44,3.73.73,5.59-2.63-1.23-5.08-2.69-7.31-4.58-1.24-1.05-2.58-2.15-3.59-3.43-.77-.97-1.25-2.02-2.27-2.76-.9-.66-1.94.72-1.04,1.38,1.24.91,2.03,2.6,3.14,3.71,1.07,1.07,2.21,2.08,3.38,3.04,2.4,1.95,5.08,3.42,7.9,4.66.04.02.08.01.12.03.52,3.19,1.07,6.39,1.44,9.6-.05.13-.08.27-.05.44.06.35.08.87.21,1.26,1.08,6.43,2.15,12.87,3.31,19.29.2,1.09,1.91.86,1.71-.24-1.16-6.4-2.22-12.82-3.3-19.23,0-.03,0-.05,0-.09-.16-1.75-.39-3.5-.65-5.24,3.11-.94,5.63-3.54,7.53-6.07.67-.89-.71-1.93-1.38-1.04-1.65,2.2-3.77,4.41-6.41,5.37-.63-3.97-1.35-7.92-1.75-11.91-.16-1.59-.26-3.18-.33-4.77.07,0,.13.02.21,0,4.57-.73,8.9-2.53,12.46-5.53.85-.72-.22-2.08-1.07-1.36-3.34,2.81-7.34,4.49-11.63,5.17,0,0-.01,0-.02,0-.11-4.75.12-9.52.53-14.25.07-.81.16-1.62.26-2.43.21.15.48.21.79.06,3.09-1.55,6.47-2.19,9.86-2.68,1.1-.16.86-1.87-.24-1.71Z"/>
              </g>
              <g>
                <path class="cls-61" d="m88.16,264.69c7.92,1.72,4.04-4.84.78-8.56-2.63-3.01-9.74-9.76-2.88-13.13,7.19-3.53,5.84,5.73,8.05,8.31,4.94,5.77,3.57-6.02,3.38-9.05-.26-4.15-.91-12.71,5.11-10.15,4.87,2.07,5.43,11.09,5.27,15.3-.12,3-3.53,15.19,1.24,15.09,3.61-.07,7.61-11.89,8.87-.76.51,4.53-2.96,9-4.06,13.08-1.61,5.98-2.26,8.46,2.94,10.05,2.7.82,4.62-1.98,6.17,1.77.8,1.93-1.74,6.77-2.78,8.34-9.58,14.47-21.73,20.43-25.29,19.9-4.82-.72-10.12-7.66-12.11-11.56-.99-1.93-2.89-5.31-1.19-7.47,1.91-2.43,5.65.53,6.78-.89,3.22-4.02-7.36-5.06-9.15-7.1-2.32-2.64-3.72-10.76,1-11.5.48-.08,13.42,7.07,8.92-1.46-2.5-4.73-10.63-1.41-11.61-8.16-1.42-9.71,7.61-2.69,10.58-2.05Z"/>
                <g class="cls-64">
                  <path class="cls-20" d="m88.16,264.69c7.92,1.72,4.04-4.84.78-8.56-2.63-3.01-9.74-9.76-2.88-13.13,7.19-3.53,5.84,5.73,8.05,8.31,4.94,5.77,3.57-6.02,3.38-9.05-.26-4.15-.91-12.71,5.11-10.15,4.87,2.07,5.43,11.09,5.27,15.3-.12,3-3.53,15.19,1.24,15.09,3.61-.07,7.61-11.89,8.87-.76.51,4.53-2.96,9-4.06,13.08-1.61,5.98-2.26,8.46,2.94,10.05,2.7.82,4.62-1.98,6.17,1.77.8,1.93-1.74,6.77-2.78,8.34-9.58,14.47-21.73,20.43-25.29,19.9-4.82-.72-10.12-7.66-12.11-11.56-.99-1.93-2.89-5.31-1.19-7.47,1.91-2.43,5.65.53,6.78-.89,3.22-4.02-7.36-5.06-9.15-7.1-2.32-2.64-3.72-10.76,1-11.5.48-.08,13.42,7.07,8.92-1.46-2.5-4.73-10.63-1.41-11.61-8.16-1.42-9.71,7.61-2.69,10.58-2.05Z"/>
                </g>
                <path class="cls-11" d="m87.73,267.66c3.48.62,6.98,1.42,10.11,3.1-.39-3.97-.9-7.99-.6-11.92.08-1.11,1.79-.8,1.7.3-.04.48-.04.96-.06,1.45.81-.74,1.39-2.24,1.77-3,.97-1.97,1.35-4.05,1.73-6.2.19-1.1,1.9-.8,1.71.3-.48,2.78-1.1,5.33-2.48,7.82-.68,1.22-1.43,2.53-2.74,3.06.08,4.8.88,9.69,1.12,14.45,2.04-.94,3.85-2.11,5.41-3.77,1.7-1.81,2.81-4.05,4.36-5.98.7-.87,2.02.25,1.32,1.12-1.87,2.31-3.16,4.94-5.38,6.98-1.67,1.54-3.57,2.62-5.64,3.51.16,5.65.01,11.32-.73,16.92-.24,1.86-.57,3.71-.91,5.56,2.67-1.14,5.16-2.52,7.45-4.34,1.27-1.01,2.65-2.07,3.7-3.31.8-.94,1.32-1.98,2.36-2.69.92-.63,1.92.79,1,1.42-1.27.87-2.11,2.53-3.26,3.6-1.1,1.03-2.27,2.01-3.48,2.92-2.46,1.87-5.19,3.25-8.05,4.4-.04.02-.08.01-.12.02-.62,3.18-1.28,6.35-1.75,9.54.04.13.07.27.03.44-.07.35-.11.87-.25,1.25-1.29,6.4-2.57,12.8-3.95,19.18-.23,1.09-1.94.79-1.7-.3,1.37-6.36,2.64-12.74,3.93-19.11,0-.03,0-.05,0-.09.22-1.75.51-3.48.83-5.22-3.08-1.05-5.51-3.73-7.33-6.32-.64-.91.78-1.91,1.42-1,1.58,2.25,3.62,4.53,6.23,5.58.76-3.94,1.61-7.87,2.14-11.85.21-1.58.37-3.17.49-4.76-.07,0-.13.02-.21,0-4.55-.88-8.81-2.82-12.27-5.93-.83-.74.29-2.07,1.12-1.32,3.24,2.92,7.18,4.73,11.45,5.55,0,0,.01,0,.02,0,.27-4.75.19-9.51-.06-14.26-.04-.81-.11-1.62-.18-2.43-.21.15-.49.2-.79.03-3.03-1.65-6.39-2.4-9.77-3.01-1.1-.2-.8-1.9.3-1.7Z"/>
              </g>
              <g>
                <path class="cls-10" d="m132.07,279.18c-7.85-2.04-1.42-6.14,3.16-7.99,3.71-1.5,13.09-4.31,8.49-10.42-4.82-6.39-7.8,2.48-10.93,3.79-7.01,2.92-.47-6.98,1.07-9.6,2.1-3.59,6.54-10.93.02-11.36-5.28-.35-9.85,7.45-11.6,11.28-1.25,2.73-3.7,15.15-7.91,12.91-3.19-1.69-1.43-14.04-7.57-4.68-2.5,3.81-1.42,9.37-2.28,13.51-1.26,6.06-1.8,8.57-7.16,7.64-2.78-.48-3.23-3.85-6.31-1.21-1.58,1.36-1.5,6.83-1.28,8.7,2.02,17.24,10.18,28.03,13.6,29.17,4.63,1.53,12.49-2.27,16.02-4.85,1.75-1.28,4.98-3.43,4.44-6.13-.61-3.03-5.28-2.07-5.65-3.85-1.05-5.04,8.85-1.2,11.37-2.21,3.26-1.31,8.17-7.93,4.3-10.72-.4-.29-15.17.26-7.3-5.33,4.36-3.09,10.12,3.53,14.04-2.05,5.64-8.03-5.57-5.83-8.52-6.6Z"/>
                <path class="cls-38" d="m132.07,279.18c-7.85-2.04-1.42-6.14,3.16-7.99,3.71-1.5,13.09-4.31,8.49-10.42-4.82-6.39-7.8,2.48-10.93,3.79-7.01,2.92-.47-6.98,1.07-9.6,2.1-3.59,6.54-10.93.02-11.36-5.28-.35-9.85,7.45-11.6,11.28-1.25,2.73-3.7,15.15-7.91,12.91-3.19-1.69-1.43-14.04-7.57-4.68-2.5,3.81-1.42,9.37-2.28,13.51-1.26,6.06-1.8,8.57-7.16,7.64-2.78-.48-3.23-3.85-6.31-1.21-1.58,1.36-1.5,6.83-1.28,8.7,2.02,17.24,10.18,28.03,13.6,29.17,4.63,1.53,12.49-2.27,16.02-4.85,1.75-1.28,4.98-3.43,4.44-6.13-.61-3.03-5.28-2.07-5.65-3.85-1.05-5.04,8.85-1.2,11.37-2.21,3.26-1.31,8.17-7.93,4.3-10.72-.4-.29-15.17.26-7.3-5.33,4.36-3.09,10.12,3.53,14.04-2.05,5.64-8.03-5.57-5.83-8.52-6.6Z"/>
                <path class="cls-11" d="m131.11,282.03c-3.39-1.01-6.87-1.88-10.43-1.79,2.14-3.37,4.4-6.72,5.91-10.37.43-1.03-1.23-1.53-1.66-.5-.18.44-.4.88-.6,1.32-.39-1.02-.23-2.63-.23-3.48.02-2.19.62-4.23,1.25-6.31.33-1.07-1.33-1.57-1.66-.5-.82,2.7-1.43,5.26-1.31,8.09.06,1.4.14,2.9,1.07,3.96-2.23,4.25-5.15,8.26-7.51,12.4-1.39-1.75-2.48-3.62-3.13-5.81-.7-2.38-.68-4.88-1.2-7.3-.23-1.09-1.92-.69-1.68.4.62,2.91.6,5.83,1.65,8.65.8,2.12,2.01,3.95,3.45,5.68-2.69,4.97-5.11,10.1-6.98,15.43-.62,1.77-1.17,3.57-1.69,5.38-1.87-2.22-3.47-4.58-4.7-7.24-.68-1.48-1.43-3.04-1.81-4.62-.29-1.2-.29-2.36-.89-3.46-.54-.98-2.06-.16-1.53.82.74,1.35.74,3.21,1.28,4.68.52,1.42,1.12,2.82,1.78,4.18,1.35,2.78,3.16,5.24,5.2,7.55.03.03.06.04.1.07-.87,3.12-1.72,6.24-2.74,9.31-.1.09-.18.21-.23.38-.09.34-.3.82-.34,1.23-1.73,6.29-3.48,12.58-5.12,18.89-.28,1.08,1.37,1.58,1.66.5,1.64-6.29,3.38-12.56,5.11-18.83.01-.03.03-.05.04-.07.59-1.66,1.12-3.34,1.62-5.03,3.22.45,6.6-.84,9.39-2.33.98-.53.17-2.05-.81-1.53-2.43,1.3-5.28,2.41-8.08,2.17,1.1-3.86,2.11-7.75,3.43-11.54.53-1.51,1.1-2.99,1.71-4.47.06.03.11.08.19.1,4.46,1.27,9.14,1.45,13.63.24,1.07-.29.68-1.98-.4-1.68-4.21,1.14-8.54.98-12.72-.21,0,0-.02,0-.02,0,1.9-4.36,4.12-8.58,6.48-12.7.4-.7.83-1.4,1.26-2.09.12.23.35.39.69.38,3.45-.1,6.79.74,10.07,1.72,1.07.32,1.57-1.34.5-1.66Z"/>
              </g>
              <g>
                <path class="cls-46" d="m115.27,326.11c0,.78-.32,1.49-.83,2-.51.51-1.22.84-2,.84l-41.81.04c-1.56,0-2.83-1.27-2.84-2.83,0-.78.32-1.49.83-2,.51-.52,1.22-.84,2-.84l41.82-.04c1.56,0,2.83,1.27,2.84,2.84Z"/>
                <path class="cls-41" d="m102.93,359.52c0,.78-.32,1.49-.83,2-.51.52-1.22.84-2,.84l-17.05.02c-1.56,0-2.84-1.27-2.84-2.84,0-.78.32-1.49.83-2,.23-.24.51-.43.82-.57,2.89,1.38,6.11,2.15,9.52,2.14,3.47,0,6.76-.81,9.69-2.24,1.09.4,1.86,1.44,1.86,2.65Z"/>
                <path class="cls-58" d="m113.46,336.99c0,8.73-5.04,16.28-12.39,19.88-2.92,1.43-6.21,2.24-9.69,2.24-3.41,0-6.63-.77-9.52-2.14-7.45-3.55-12.6-11.14-12.6-19.94,0-2.84.53-5.55,1.5-8.05l41.18-.04c.98,2.49,1.52,5.21,1.52,8.04Z"/>
              </g>
            </g>
          </g>
          <g>
            <path class="cls-63" d="m341.2,355.87c-.1-9.58-52.51-16.77-117.04-16.06-64.54.7-116.77,9.04-116.66,18.61,0,.03,0,.06,0,.1.29,6.08-3.26,11.55-8.75,12.69-23.54,4.91-38.16,11.63-38.08,18.9.15,14.12,55.72,24.96,124.11,24.21,68.39-.75,123.71-12.79,123.55-26.91,0-.06,0-.12,0-.18-.46-10.31,5.64-19.62,14.88-21.88,11.43-2.81,18.03-6.06,17.99-9.47Z"/>
            <g>
              <g>
                <g>
                  <path class="cls-52" d="m278.14,86.3h0c4.58.95,7.07,6.02,5.23,10.65l-13.14,43.03c-.9,2.77-3.3,4.76-6.06,5.02l-31.96,3.01s.65,6.12-4.04,5.46c0,0-9.54-.74-6.19-2.28l4.56-2.77-5.99-1.14s.6-3.22,9.49-2.7l30.12-10.09,8.76-41.97c1.03-4.3,5.13-7.07,9.2-6.22Z"/>
                  <path class="cls-19" d="m264.62,105.61l16.73,4.29s10.35-28.47,1.9-32.8c0,0-8.54-5.85-13.95,8.13l-4.68,20.39Z"/>
                </g>
                <g>
                  <path class="cls-53" d="m311.05,33.7c-3.99-6.22-11.2-6.23-16.66-4.63-2.01.59-4,1.56-5.55,3.36-.89,1.03-1.7,2.61-2.3,3.94-.24.54-.99,2.5-.73,3.02l.77-2.15c-.52,2.01-1.3,3.69-1.61,5.83-.38,2.64-.39,5.34-.26,8.03.31,5.98,3.28,12.19,7.07,15.57,7.34,6.55,17.96,1.61,21.48-8.24,1.51-4.21,2.54-9.05,2.14-13.8-.35-4.18-2.32-7.78-4.35-10.94Z"/>
                  <path class="cls-2" d="m324.54,193.26c-.69,17.04-5.2,44.36-9.6,61.91-2.64,10.5-3.52,21.36-2.6,32.15l1.49,63.64c-.74.03-1.7.04-2.67.04-2.45,0-5.09-.06-5.09-.06-.11.26-.2.52-.27.76l-12.79-69.73c-1.2-6.52-1.64-13.16-1.32-19.79l2.92-60.52-4.27-.02-14.08,68.75c-.61,2.98-.97,6.01-1.08,9.06l-2.54,69.6-.03.78s-.01-.07-.03-.11c0,0-.57-.07-1.41-.18-.76-.09-1.76-.21-2.78-.33-1.06-.12-2.14-.23-2.99-.31l.42-.32-8.91-60.86c-1.33-9.11-1.45-18.36-.34-27.5,1.46-12.13,3.38-28.79,3.57-34.45,1.66-49.97,11.2-74.22,11.2-74.22l42.18-1.03,10.4,30.17c.69,2.7.85,7.11.62,12.57Z"/>
                  <path class="cls-62" d="m314.94,255.17c-2.64,10.5-3.52,21.36-2.6,32.15l1.49,63.64c-.74.03-1.7.04-2.67.04l-5.38-55.53c-1.29-13.4-1.12-26.9.53-40.21l7.76-62.84,10.47.84c-.69,17.04-5.2,44.36-9.6,61.91Z"/>
                  <path class="cls-22" d="m288.92,74.86c4.86-.31,9.6.33,13.71,1.3-4.77,5.69-16.74,20.9-16.74,20.9-.74-10.79,1.66-18.67,3.03-22.19Z"/>
                  <path class="cls-35" d="m323.46,194.55c-5.79.76-11.45,1.37-16.97,1.79-16.69,1.25-32.01.74-45.19-2.51,0,0,.8-5.34,1.94-12.53,1.12-7.06,2.59-15.91,4-23.24.09-.49.19-.98.27-1.47,1.54-8.73,1.91-17.62,1.12-26.45-1.06-11.76,2.52-33.54,4.79-45.71.96-5.14,5.4-8.87,10.62-8.93.94-.2,1.89-.35,2.84-.45-7.02,8.98-1.6,27.56-1.6,27.56,6.21-8.42,20.18-25.72,20.18-25.72,1.73.5,3.3,1.04,4.66,1.55,3.3,1.23,5.32,2.3,5.32,2.3l.54,2c3.06,11.25,3.79,23.01,2.19,34.56-.77,5.56-1.17,11.13-1.19,16.71-.04,11.76,1.62,23.5,4.96,34.85,2.18,7.44,4.18,15.28,4.98,21.25.28,2.17-1.28,4.16-3.46,4.44Z"/>
                  <path class="cls-55" d="m323.46,194.55c-5.79.76-11.45,1.37-16.97,1.79-13.75-19.46-11.21-47.03-7.63-64.28,1.55-7.48,4.23-14.65,7.48-21.56,5.55-11.8,4.83-25.06,3.78-32.06,3.3,1.23,5.32,2.3,5.32,2.3l.54,2c3.06,11.25,3.79,23.01,2.19,34.56-.77,5.56-1.17,11.13-1.19,16.71-.04,11.76,1.62,23.5,4.96,34.85,2.18,7.44,4.18,15.28,4.98,21.25.28,2.17-1.28,4.16-3.46,4.44Z"/>
                  <path class="cls-18" d="m302.63,76.16s-.05-.01-.07-.02l1.94-13.9-11.93,3.75-1.95,8.81c-.57.01-1.14.03-1.71.07-.68.05-1.36.1-2.04.19-2.17,2.78-3.15,6.47-3.46,10.24-.08.84-.12,1.69-.13,2.53-.11,7.6,1.99,14.79,1.99,14.79,2.55-3.46,6.43-8.44,10.1-13.09.62-.78,1.22-1.54,1.82-2.3,4.5-5.66,8.27-10.33,8.27-10.33-.9-.26-1.85-.5-2.83-.74Z"/>
                  <path class="cls-12" d="m247.71,360.06c19.93.55,28.84.41,25.31-10.22,0-.03-.02-.07-.03-.11,0,0-4.71-.59-7.38-.82l-17.78,6.56c-4.77,1.42-2.9,4.5-.12,4.59Z"/>
                  <path class="cls-12" d="m289.68,362.41c-2.71.04-4.66-2.96-.09-4.59l16.95-7.31.02-.02.07-.02c2.6.11,7.21.49,7.21.49.1.26.19.52.26.77,3.29,9.83-5.41,10.35-24.42,10.69Z"/>
                  <g>
                    <path class="cls-60" d="m297.56,84.83c-.57.73-1.15,1.46-1.75,2.2-3.52,4.46-7.23,9.23-9.68,12.55,0,0-2.01-6.89-1.91-14.18.01-.81.05-1.62.13-2.43l13.21,1.85Z"/>
                    <path class="cls-32" d="m295.82,87.03c-3.52,4.46-7.23,9.23-9.68,12.55,0,0-2.01-6.89-1.91-14.18l11.59,1.63Z"/>
                  </g>
                  <path class="cls-44" d="m316.92,52.43c-.76,3.85-3.61,5.13-6.26,5.97-3.11,6.96-9.98,13.68-16.06,12.8-.85-.12-1.68-.33-2.47-.62-6.8-2.37-11.55-10.12-11.34-17.65.62-21.27,7.6-25.52,15.82-25.06,3.28.19,6.65,2.82,9.43,6.51,2.54,3.38,4.6,7.65,5.61,11.71.82-.52,1.67-.82,2.42-.78,2.51.14,3.45,4.09,2.85,7.12Z"/>
                  <path class="cls-52" d="m316.92,52.43c-.76,3.85-3.61,5.13-6.26,5.97-3.11,6.96-9.98,13.68-16.06,12.8-.85-.12-1.68-.33-2.47-.62,19.39-5.06,17.06-24.8,13.91-36.2,2.54,3.38,4.6,7.65,5.61,11.71.82-.52,1.67-.82,2.42-.78,2.51.14,3.45,4.09,2.85,7.12Z"/>
                  <path class="cls-53" d="m298.02,51.17c.08.91-.52,1.7-1.35,1.77-.82.07-1.56-.6-1.63-1.51-.08-.91.52-1.7,1.35-1.77.82-.07,1.56.6,1.63,1.51Z"/>
                  <path class="cls-53" d="m287.73,51.85c.08.91-.52,1.7-1.35,1.77-.82.07-1.56-.6-1.63-1.51-.08-.91.52-1.7,1.35-1.77.82-.07,1.56.6,1.63,1.51Z"/>
                  <path class="cls-53" d="m301.39,47.75c-.19.03-.39-.06-.5-.23-1.74-2.74-4.28-1.35-4.39-1.29-.25.14-.55.05-.7-.19-.14-.25-.05-.56.2-.7,1.2-.68,3.95-1.2,5.75,1.63.15.24.08.55-.16.71-.06.04-.13.07-.2.08Z"/>
                  <path class="cls-53" d="m293.42,61.43c.06-.18.23-.32.44-.34,3.23-.29,3.16-3.19,3.16-3.31,0-.28.21-.52.49-.53.28,0,.52.21.53.49.05,1.38-.74,4.06-4.09,4.36-.28.03-.53-.18-.55-.46,0-.08,0-.15.03-.22Z"/>
                  <path class="cls-53" d="m287.42,46.48c-.11.12-.28.18-.45.13-2.61-.79-3.46,1.49-3.5,1.59-.08.22-.32.34-.55.26-.22-.08-.34-.33-.26-.55.39-1.09,1.85-2.93,4.55-2.12.23.07.36.31.29.53-.02.06-.05.11-.09.16Z"/>
                  <path class="cls-53" d="m288.76,59.34c-.33-.07-.63-.22-.86-.46-.75-.75-.7-2.1.14-3.6l2.26-5.12c.09-.2.31-.29.52-.2.2.09.29.32.2.52l-2.28,5.16c-.79,1.42-.66,2.32-.29,2.7.39.39,1.11.36,1.84-.05.19-.1.44-.05.55.13.11.18.07.41-.11.52-.71.4-1.4.54-1.98.42Z"/>
                  <path class="cls-53" d="m278.71,38.19c3.21-15.74,18.87-13.99,18.87-13.99,16.85,3.76,15.72,18.82,15.72,18.82-1.25,10.85-6.48,12.71-6.48,12.71,3.97-7.62-6.46-16.72-6.46-16.72.47,3.24,3.73,7.46,3.73,7.46-6.2.75-11.63-5.73-11.63-5.73l.07,4.1c-4.93-.95-6.54-2.7-7.01-4.04l.07,2.04c-1.53-.73-2.52-1.48-3.16-2.21l-1.6,11.08c-4.01-5.72-2.13-13.52-2.13-13.52Z"/>
                  <path class="cls-27" d="m305.46,76.89s-13.98,17.31-20.19,25.72c0,0-5.42-18.58,1.6-27.56.4-.05.78-.09,1.18-.12.29-.03.58-.05.86-.07-1.37,3.52-3.77,11.4-3.03,22.19,0,0,11.97-15.21,16.74-20.9.44.11.88.21,1.31.32.04.01.09.03.15.04.47.12.93.24,1.38.37Z"/>
                  <polygon class="cls-60" points="280.54 102.4 272.18 102.37 272.66 98.09 281.02 98.11 280.54 102.4"/>
                  <path class="cls-3" d="m317.76,181.04l-15.37-.02c-3.86-8.24-3.87-16.54-3.6-24.76l15.61-.21c-2.02,6.23,1.19,15.3,3.35,24.99Z"/>
                  <path class="cls-49" d="m270.31,156.6l-.06,18.96c0,3.18-2.6,5.75-5.78,5.74h-1.24c1.13-7.06,2.59-15.91,4-23.24.1-.49.19-.99.27-1.48h2.8Z"/>
                </g>
                <path class="cls-1" d="m290.34,201.64l-14.08,68.75c-.61,2.98-.97,6.01-1.08,9.06l-2.54,69.6-1.47.49-2.75.93-.03-1.26-1.2-54.45c-.27-12.49.93-24.97,3.58-37.17l12.15-55.92,7.42-.03Z"/>
              </g>
              <g>
                <g>
                  <g>
                    <path class="cls-34" d="m197.75,175.1c-.25,0-.51-.04-.76-.14-1.16-.42-1.76-1.71-1.34-2.88l6.6-18.11c.32-.89,1.17-1.48,2.11-1.48l29.24-.04c1.24,0,2.24,1.01,2.24,2.25,0,1.24-1.01,2.24-2.25,2.24l-27.67.04-6.06,16.63c-.33.91-1.2,1.48-2.11,1.48Z"/>
                    <path class="cls-9" d="m257.38,175.33c-.25,0-.51-.04-.76-.14-1.16-.42-1.76-1.71-1.34-2.88l6.6-18.11c.32-.89,1.17-1.48,2.11-1.48l20.57.06c1.24,0,2.24,1.01,2.24,2.25,0,1.24-1.01,2.24-2.25,2.24l-18.99-.06-6.06,16.63c-.33.91-1.2,1.48-2.11,1.48Z"/>
                  </g>
                  <path class="cls-54" d="m221.54,149.87c.36-1.07.88-2.15,1.1-3.25.28-1.4.07-2.89.13-4.29.14-3.33.49-6.6-.52-9.72-.76-2.34-4.58-10.35-8.19-9.84-2.93.41-7.42.83-10.11,2.4-2.45,1.43-5.31,3.35-7.08,5.77-4.75,6.51-6.66,15.58-3.89,22.74,1.68,4.34,6.32,7.42,10.35,8.67,5.55,1.73,11.52.62,15.31-5.17,1.59-2.43,2.01-4.59,2.92-7.32Z"/>
                  <g>
                    <g>
                      <g>
                        <polygon class="cls-28" points="160.27 329.94 127.63 329.84 149.46 285.28 146.13 283.65 126.61 323.49 126.77 268.69 123.06 268.68 122.9 323.84 104.06 283.2 100.69 284.76 121.58 329.82 89.78 329.73 89.76 334.23 121.3 334.32 99.68 378.45 103.02 380.08 122.85 339.59 122.68 394.4 126.39 394.41 126.55 340.55 145.08 380.53 148.45 378.97 127.76 334.34 160.25 334.44 160.27 329.94"/>
                        <path class="cls-25" d="m124.69,345.02c-4.29-.01-7.74-6.23-7.72-13.88.02-7.65,3.52-13.84,7.81-13.83,4.29.01,7.74,6.22,7.72,13.88-.02,7.65-3.52,13.84-7.81,13.83Z"/>
                      </g>
                      <path class="cls-47" d="m124.7,266.95c-19.76-.06-35.85,28.43-35.95,63.62-.11,35.2,15.81,63.78,35.57,63.84,19.75.06,35.85-28.43,35.95-63.62.11-35.19-15.82-63.77-35.57-63.83Zm-.37,122.31c-18.16-.06-32.79-26.33-32.7-58.69.1-32.36,14.89-58.53,33.05-58.48,18.15.06,32.79,26.32,32.7,58.68-.1,32.36-14.9,58.54-33.05,58.49Z"/>
                    </g>
                    <path class="cls-43" d="m129.86,257.49c-22.51-.07-40.85,32.44-40.97,72.6-.12,40.17,18.02,72.79,40.53,72.86,22.5.07,40.85-32.44,40.97-72.61.12-40.16-18.03-72.78-40.53-72.84Zm-.4,132.62c-18.54-.06-33.48-26.92-33.38-60,.1-33.08,15.2-59.84,33.74-59.79,18.53.06,33.48,26.91,33.38,59.99-.1,33.08-15.21,59.85-33.74,59.8Z"/>
                    <path class="cls-7" d="m133.27,270.34c-.6,0-1.2.03-1.8.08,17.69,1.72,31.68,27.9,31.58,59.89-.1,32-14.24,58.1-31.94,59.72.59.06,1.19.09,1.79.09,18.53.06,33.65-26.72,33.75-59.8.1-33.08-14.85-59.93-33.38-59.99Zm-40.93,59.76c.12-39.08,17.49-70.92,39.17-72.52-.6-.06-1.2-.08-1.8-.08-22.51-.07-40.84,32.43-40.97,72.59-.12,40.17,18.02,72.79,40.52,72.86.6,0,1.2-.02,1.8-.07-21.67-1.74-38.85-33.68-38.73-72.78Z"/>
                  </g>
                  <path class="cls-26" d="m130.06,369.94c-.55,0-1.1-.16-1.58-.49-1.28-.88-1.6-2.63-.72-3.9.43-.63.97-.93,1.6-1.28,9.96-5.6,12.35-20.48,12.59-31.98l3.14-90.51c.03-1.01.61-1.92,1.51-2.39l45.63-23.79c1.37-.72,3.07-.18,3.78,1.19.72,1.37.18,3.07-1.19,3.78l-44.18,23.04-3.08,88.84c-.41,18.82-5.61,31.18-15.45,36.72-.08.05-.16.09-.22.13-.52.44-1.17.67-1.82.66Z"/>
                  <g>
                    <polygon class="cls-53" points="184.66 382.81 101.64 382.56 101.65 379.85 123.76 367.77 205.68 365.3 205.67 368.4 184.66 382.81"/>
                    <polygon class="cls-48" points="184.11 380.1 101.65 379.85 123.21 365.05 205.68 365.3 184.11 380.1"/>
                    <path class="cls-17" d="m175.99,376.9l-42.02-.13c-5.44-.02-7.61-5.41-3.13-7.76h0c.93-.49,2.03-.75,3.15-.74l42.02.13c5.44.02,7.61,5.41,3.13,7.76h0c-.93.49-2.03.75-3.15.74Z"/>
                  </g>
                  <g>
                    <g>
                      <polygon class="cls-53" points="139.88 284.94 176.91 267.76 247.87 267.97 210.84 285.16 139.88 284.94"/>
                      <polygon class="cls-57" points="139.87 289 176.9 271.81 247.86 272.03 210.83 289.21 139.87 289"/>
                      <rect class="cls-53" x="141.94" y="285.8" width="70.96" height="5.85" transform="translate(.88 -.54) rotate(.17)"/>
                      <polygon class="cls-15" points="245.66 277.33 213.36 292.25 213.38 286.39 245.68 271.48 245.66 277.33"/>
                    </g>
                    <path class="cls-42" d="m255.93,168.92l-49.87-.15c-6.84-.02-12.69,4.92-13.81,11.66l-15.35,91.87,70.96.22,15.78-94.46c.8-4.77-2.87-9.12-7.71-9.13Z"/>
                    <path class="cls-56" d="m250.41,168.9l-49.87-.15c-6.84-.02-12.69,4.92-13.81,11.66l-15.35,91.87,70.96.22,15.78-94.46c.8-4.77-2.87-9.12-7.71-9.13Z"/>
                    <path class="cls-24" d="m242.01,175.4l-38.06-.12c-5.22-.02-9.69,4.43-10.55,10.51l-11.76,82.8,54.17.16,12.09-85.13c.61-4.3-2.19-8.22-5.88-8.23Z"/>
                  </g>
                  <path class="cls-29" d="m203.05,169h0c2.8,1.52,4.15,5.23,3.1,8.53l-11.01,34.71c-.75,2.37-2.31,4.29-4.32,5.32l-14.42,7.42-3.24-4.03,13.16-12.55,8.56-35.22c.97-4,4.85-5.99,8.16-4.19Z"/>
                  <path class="cls-44" d="m202.25,277.7l-47.59,16.25s7.33,29.34,2.41,66.28c-.13.99-.27,1.99-.42,3l-6.85-.21-12.2-64.46c-1.54-8.14,1.99-16.4,9.04-21.12l42.54-28.88,7.6.14,9.85.17s10.27,19.88-4.38,28.83Z"/>
                  <path class="cls-52" d="m202.25,277.7l-47.59,16.25s7.33,29.34,2.41,66.28c-1.89-22.52-3.59-45.53-9.32-57.66-3.43-7.26-2.6-15.98,2.86-21.87,1.13-1.21,2.41-2.31,3.83-3.27l42.33-28.74,9.85.17s10.27,19.88-4.38,28.83Z"/>
                  <path class="cls-54" d="m134.82,373.61c18.03-1.41,26.05-2.37,21.84-10.93,0-.03-.02-.06-.04-.09,0,0-4.31-.05-6.73,0l-15.41,7.16c-4.16,1.64-2.18,4.04.34,3.85Z"/>
                  <path class="cls-44" d="m222.33,278.05l-47.59,16.25s7.4,27.39,1.66,65.72l-4.03,2.07-2.5,1.28-12.19-64.46c-1.54-8.14,1.99-16.4,9.04-21.12l42.53-28.88,11.76.21,5.7.1s10.26,19.88-4.38,28.83Z"/>
                  <path class="cls-52" d="m222.33,278.05l-47.59,16.25s7.4,27.39,1.66,65.72l-4.03,2.07c4.05-25.56-1.25-54.08-4.11-66.57-.84-3.69,1.2-7.42,4.74-8.75,47.98-17.94,50.81-31.19,48.01-37.65l5.7.1s10.26,19.88-4.38,28.83Z"/>
                  <path class="cls-54" d="m159.45,372.94l7.27-2.69,3.08-7.96,6.59-2.27s3.48.7,3.89,2.41c.73,3.03-1.81,6.93-6.61,11.9-.6.62-1.4,1.05-2.26,1.22-2.56.51-11.41,1.27-11.41,1.27h0c-2.2-.2-2.62-3.12-.56-3.89Z"/>
                  <path class="cls-51" d="m231.08,278.89c-4.25,6.84-10.53,8.63-17.93,11.08-8.98,2.95-15.58,5.39-21.87,12.47-1.61,1.83-1.3,2.26-3.59,1.61-1.41-.39-2.83-2.1-3.62-3.24-.89-1.24-.99-2.94-1.81-4.08-.79-1.1-1.94-1.34-2.8-2.23-2.11-2.2-1.57-3.81-1.25-7.07.34-3.66.84-5.87-3.16-6.47-4.2-.62-11.47,3.46-14.82.49h-.01c-.14-.13-.25-.24-.37-.38-1.84-2.14-1.38-4.91-4.63-5.93-2.91-.93-6.13,1.17-8.94.5-.6-4.12,5.62-7.19,8.44-9,4.16-2.68,7.89-5.93,11.59-9.21,5.89-5.26,10.79-10.05,11.59-17.84-4.95-12.87,3.58-27.72,8.78-35.08,1.75-2.47,3.12-4.1,3.49-4.51l.09-.12c-3.35-3.93-3.87-9.54-1.3-14.02l10.05-17.46,4.9-1.31c-6.18,7.4-4.3,11.12-2.62,12.67.68.62,1.54,1.01,2.45,1.15,8.35,1.22,15.17-8.01,18.63-13.94.16.03.32.07.46.1.05.01.11.03.16.05.54.13,1.06.31,1.59.46,1.26.41,2.49.89,3.67,1.45,4.42,11.36-.15,31.74-2.87,41.68-.42,1.58-.23,7.98.31,15.65.78,11.26,3.04,22.34,6.21,33.16.01.03.01.06.02.08.44,1.54.82,3.11,1.09,4.67.92,5.23.7,10.42-1.93,14.62Z"/>
                  <g class="cls-64">
                    <path class="cls-50" d="m233.01,264.28s0,0,0,0c0-.03-.02-.07-.02-.1-.13-.72-.28-1.45-.45-2.17-.02-.09-.04-.17-.06-.25-.16-.65-.32-1.3-.51-1.94-.02-.07-.03-.14-.05-.2-.01-.02-.01-.05-.02-.08-3.17-10.82-5.43-21.9-6.21-33.16-.54-7.67-.73-14.07-.31-15.65,2.72-9.94,7.29-30.32,2.87-41.68-1.18-.56-2.41-1.04-3.67-1.45-.53-.15-1.05-.33-1.59-.46.73,4.43-.19,9.79-1.38,13.76-2,6.7-4.71,13.24-6.8,19.91-2.01,6.47-2.68,13.97-1.71,20.77.89,6.25,3.28,11.89,3.26,18.31,0,3.19.2,6.57-.68,9.63-1.16,4.03-3.78,5.2-7.27,7-1.26.65-2.62,1.4-4,2.22-2.46.92-4.92,1.33-7.66,2.11-2.51.72-4.12,1.48-5.17,3.83-.94,2.1-.93,3.04-3.42,3.67-3.31.84-7.58-1.63-10.47-.43-4.73,1.98,3.52,6.26-1.43,8.73-2.44,1.22-6.73.8-9.43.78-1.69,0-3.44-.24-4.87.76-1.17.83-1.93,2.11-1.75,3.26h.01c3.35,2.98,10.62-1.1,14.82-.48,4.01.6,3.51,2.81,3.16,6.48-.31,3.25-.85,4.86,1.26,7.07.86.89,2.01,1.13,2.8,2.23.82,1.14.92,2.84,1.81,4.09.79,1.13,2.21,2.84,3.62,3.23,2.29.66,1.98.23,3.59-1.61,6.29-7.08,12.89-9.51,21.86-12.47,7.41-2.45,13.68-4.24,17.94-11.08,2.62-4.2,2.84-9.38,1.92-14.62Z"/>
                  </g>
                  <path class="cls-44" d="m182.57,227.07c-.63-1.43-3.36-1.3-5.02-3.25l1.83.28c1.88.08,1.31-1.29,1.31-1.29-.2-.37-.94-.72-1.8-1.01-1.65-.57-3.42-.83-5.18-.84h-.5c-.26.23-.49.45-.69.68h0,0c-4.75,5.18,5.56,9.67,5.92,9.81,2.55,1.01,5.18-2.02,4.13-4.37Z"/>
                  <path class="cls-18" d="m222.37,166.97c-3.46,5.93-10.28,15.16-18.64,13.94-.91-.14-1.77-.53-2.44-1.15-1.68-1.55-3.56-5.27,2.62-12.67l1.51-.35,4.62-1.08-.2-5.23v-.13s-.16-3.77-.16-3.77l9.62-.5.39,10.49s.33.05.77.12c.7.12,1.67.28,1.91.34Z"/>
                  <path class="cls-29" d="m222.37,166.97c-3.46,5.93-10.28,15.16-18.64,13.94-.91-.14-1.77-.53-2.44-1.15-1.68-1.55-3.56-5.27,2.62-12.67l1.51-.35c-1.98,3.15-6.66,11.68.31,12.09,0,0,7.99.02,14.73-12.2.7.12,1.67.28,1.91.34Z"/>
                  <g class="cls-64">
                    <path class="cls-21" d="m212.53,206.81c-2.08.2-4.47.19-6.48-.32-3.55-.89-6.97-1.93-10.61-2.43-2.16-.31-4.55-.32-6.72-.02-.66.09-1.34.28-2.04.48,1.74-2.46,3.12-4.09,3.49-4.51,4.35.32,8.81.18,13.13.82,3.64.53,8.86.5,12.06,2.64,3.01,2.02-.91,3.16-2.82,3.34Z"/>
                  </g>
                  <path class="cls-33" d="m184.28,375.38c-.55,0-1.1-.16-1.58-.49-1.28-.88-1.6-2.63-.72-3.9.43-.63.97-.93,1.6-1.28,9.96-5.6,12.35-20.48,12.59-31.98l3.14-90.51c.03-1.01.61-1.92,1.51-2.39l45.63-23.79c1.37-.72,3.07-.18,3.78,1.19.72,1.37.18,3.07-1.19,3.78l-44.18,23.04-3.08,88.84c-.41,18.82-5.61,31.18-15.45,36.72-.08.05-.16.09-.22.13-.52.44-1.17.67-1.82.66Z"/>
                  <path class="cls-44" d="m208.1,243.33l-2.83,1.45s-2.44,13.15-7.04,14.26c0,0-4.43-.01-1.34-7.44l2.12-3.54-3.79,3.71s-2.76.17,3.05-5.94c0,0,1.18-2.04,3.74-3.52l2.25-1.91c1.32,1,2.8,2.13,3.83,2.93Z"/>
                  <path class="cls-14" d="m237.84,223.07c.16,2.98-1.36,5.77-3.84,7.02l-24.86,14.63c-.35-.27-.87-.73-1.45-1.26-1.14-1.06-2.54-2.4-3.42-3.06l22.2-18.85-6.96-43.28c-.58-4.45,2.17-8.57,6.21-9.31.04-.02.08-.02.12-.03,4.61-.78,8.77,3.13,8.72,8.22l3.28,45.92Z"/>
                  <path class="cls-8" d="m237.84,223.07c.16,2.98-1.36,5.77-3.84,7.02l-24.86,14.63c-.35-.27-.87-.73-1.45-1.26l28.15-20.46-4-43.67c-1.04-7.36-3.86-9.71-6.12-10.37.04-.02.08-.02.12-.03,4.61-.78,8.77,3.13,8.72,8.22l3.28,45.92Z"/>
                  <g>
                    <polygon class="cls-5" points="282.7 330.31 248.64 330.21 271.41 285.65 267.94 284.02 247.58 323.86 247.74 269.05 243.87 269.04 243.71 324.21 224.05 283.56 220.54 285.12 242.33 330.19 209.15 330.09 209.14 334.59 242.04 334.69 219.5 378.81 222.97 380.44 243.66 339.96 243.49 394.77 247.36 394.78 247.53 340.92 266.86 380.9 270.37 379.34 248.78 334.71 282.68 334.81 282.7 330.31"/>
                    <path class="cls-59" d="m244.48,259.18c-22.51-.07-40.85,32.44-40.97,72.6-.12,40.17,18.02,72.79,40.53,72.86,22.5.07,40.85-32.44,40.97-72.61.12-40.16-18.03-72.78-40.53-72.84Zm-.4,132.62c-18.54-.06-33.48-26.92-33.38-60,.1-33.08,15.2-59.84,33.74-59.79,18.53.06,33.48,26.91,33.38,59.99-.1,33.08-15.21,59.85-33.74,59.8Z"/>
                    <path class="cls-45" d="m247.9,272.03c-.6,0-1.2.03-1.8.08,17.69,1.72,31.68,27.9,31.58,59.89-.1,32-14.24,58.1-31.94,59.72.59.06,1.19.09,1.79.09,18.53.06,33.65-26.72,33.75-59.8.1-33.08-14.85-59.93-33.38-59.99Zm-40.93,59.76c.12-39.08,17.49-70.92,39.17-72.52-.6-.06-1.2-.08-1.8-.08-22.51-.07-40.84,32.43-40.97,72.59-.12,40.17,18.02,72.79,40.52,72.86.6,0,1.2-.02,1.8-.07-21.67-1.74-38.85-33.68-38.73-72.78Z"/>
                    <path class="cls-40" d="m246.16,344.42c-4.29-.01-7.74-6.23-7.72-13.88.02-7.65,3.52-13.84,7.81-13.83,4.29.01,7.74,6.22,7.72,13.88-.02,7.65-3.52,13.84-7.81,13.83Z"/>
                    <path class="cls-23" d="m254.88,272.04c-18.54-.06-33.64,26.72-33.74,59.79-.1,33.08,14.84,59.95,33.38,60,18.53.06,33.64-26.72,33.74-59.8.1-33.07-14.85-59.94-33.38-59.99Zm-.35,114.95c-17.05-.05-30.78-24.75-30.69-55.16.09-30.41,13.97-55.01,31.02-54.96,17.04.05,30.78,24.74,30.69,55.15-.09,30.41-13.98,55.02-31.02,54.97Z"/>
                  </g>
                  <path class="cls-54" d="m210.43,146.39c.41-1.03-1.04-5.98-1.06-6.94,0,0,12.27-8.08,16.54-5.92,0,0-5.52,5.07-2.23,14.34,1.34,3.77,2.26,8.87,4.69,12.22,1.23,1.7,12.29,9.36,10.93,11.19-1.79,2.42-8.02-5.58-9.84-5.96.26,1.95-2.32,1.26-3.47.7-1.69-.83-2.92-2.5-4.03-3.85-.88-1.07-1.67-3.53-3.37-3.81-1.43-.23-2.91,1.4-4.42.73-1.7-.74-.69-2.53-1.6-3.53-.99-1.08-3.02-.31-4.01-1.44-1.78-2.02,1.1-5.77,1.88-7.75Z"/>
                  <path class="cls-44" d="m224.82,158.28c-.74.78-1.58,1.45-2.53,1.99-4.51,2.6-12-.54-16.62-5.04-2.35.17-4.99.05-6.79-2.74-1.42-2.19-1.91-5.59.02-6.49.58-.27,1.33-.29,2.14-.14-.72-5.42.33-11.98,2.88-15.94.9-1.41,1.99-2.49,3.26-3.08,6.32-2.93,13.13-1.77,20.26,14.76,2.38,5.51,1.34,12.54-2.62,16.68Z"/>
                  <path class="cls-52" d="m224.82,158.28c-.74.78-1.58,1.45-2.53,1.99-4.51,2.6-12-.54-16.62-5.04-2.35.17-4.99.05-6.79-2.74-1.42-2.19-1.91-5.59.02-6.49.58-.27,1.33-.29,2.14-.14-.72-5.42.33-11.98,2.88-15.94.17,11.47,2.89,32.25,20.9,28.36Z"/>
                  <path class="cls-53" d="m222.38,148.82c-.18.01-.35-.11-.38-.3-.03-.2.1-.38.29-.42.71-.13,1.1-.41,1.17-.83.04-.24-.05-.51-.24-.75-.5-.63-1.19-.5-1.22-.49-.15.03-.31-.04-.39-.18-.65-1.14-.7-1.3-.48-1.51.11-.11.31-.13.45-.05.11.07.18.19.18.31.06.14.21.42.36.7.39-.01,1.1.08,1.66.78.32.4.46.87.39,1.31-.08.52-.45,1.19-1.75,1.43-.01,0-.03,0-.04,0Z"/>
                  <g>
                    <path class="cls-53" d="m213.83,144.64c.2.74.91,1.2,1.58,1.02.68-.18,1.06-.93.87-1.67-.2-.74-.91-1.2-1.58-1.02-.68.18-1.06.93-.87,1.67Z"/>
                    <path class="cls-53" d="m221.66,141.9c.2.74.91,1.2,1.58,1.02.68-.18,1.06-.93.87-1.67-.2-.74-.91-1.2-1.58-1.02-.68.18-1.06.93-.87,1.67Z"/>
                    <path class="cls-53" d="m209.03,142.9c.16-.03.29-.16.33-.33.6-2.68,3.02-2.31,3.12-2.29.23.04.46-.12.5-.35.04-.24-.12-.46-.36-.5-1.15-.19-3.49.18-4.11,2.95-.05.23.1.46.33.51.06.01.12.01.18,0Z"/>
                    <path class="cls-53" d="m219.49,138.03c.12.07.27.06.39-.03,1.85-1.38,3.18.19,3.24.26.13.15.35.17.51.05.15-.13.18-.36.05-.51-.62-.75-2.31-1.8-4.23-.38-.16.12-.19.35-.07.51.03.04.07.08.12.1Z"/>
                    <path class="cls-53" d="m221.66,150.71c-.11-.08-.27-.09-.39-.01-1.98,1.18-3.15-.52-3.2-.59-.11-.17-.34-.21-.5-.1-.17.11-.21.34-.1.5.54.81,2.12,2.03,4.17.81.17-.1.23-.33.13-.5-.03-.05-.06-.08-.1-.11Z"/>
                  </g>
                  <path class="cls-54" d="m225.33,127.97c-1.3-2.66-3.53-4.75-6.29-5.82-6.27-2.41-13.36-1.36-18.48,2.91-.37.31-.72.63-1.07.97-2.9,2.84-4.84,6.61-5.69,10.58-.46,2.19-.57,4.49-.22,6.69-1,.81-1.62,1.36-1.62,1.36.11,1.07.04,1.24-.27,2.43-.58,2.28-1.06,11.97.91,14.07,1.1,1.17,3.05.13,4.14,1.25,1,1.03.18,3.12,1.95,3.8,1.58.61,2.88-1.34,4.33-1.22,1.71.15,2.75,2.83,3.73,3.96,1.23,1.41,2.63,3.16,4.39,3.94,1.2.53,3.84,1.07,3.39-1.09,1.85.26,8.85,8.65,10.39,5.79,1.17-2.18-10.6-9.76-12-11.55-2.75-3.53-4.18-9.15-5.88-13.25-2.24-5.37-1.86-9.62-1.02-12.42,1.56-2.62,3.93-4.77,6.25-6.82l.61,2.1c.71,2.45,4.4,2.03,4.42-.52,0-.95-.18-1.91-.34-2.91,1.33.96,1.85,1.72,2.1,2.51.29.95,1.64.99,2.04.08.5-1.14.69-2.37.04-3.39,1.52,2.01,3.91,5.19,4,5.31,0,0,0,0,0,0,.08-.09,3.58-1.88.2-8.77Z"/>
                </g>
                <g>
                  <path class="cls-44" d="m313.39,82.2h0c4.67.09,8.06,4.61,7.11,9.49l-4.94,44.71c-.37,2.89-2.36,5.29-5.02,6.06l-30.85,8.87s1.77,5.9-2.96,6.12c0,0-9.51,1.04-6.5-1.1l3.97-3.57h-6.1s0-3.28,8.82-4.42l27.73-15.49.84-42.86c.22-4.41,3.73-7.9,7.89-7.82Z"/>
                  <path class="cls-31" d="m303.68,111.71l17.24,1.09s4.89-29.14-4.21-31.77c0,0-9.48-4.07-12.2,10.3l-.83,20.37Z"/>
                </g>
              </g>
            </g>
          </g>
        </g>
      </g>
    </g>
  </g>
</svg>