<?xml version="1.0" encoding="utf-8"?>
<!-- Generator: Adobe Illustrator 28.0.0, SVG Export Plug-In . SVG Version: 6.00 Build 0)  -->
<svg version="1.1" id="Layer_2_00000054980996404418402280000012783952533278287018_"
	 xmlns="http://www.w3.org/2000/svg" xmlns:xlink="http://www.w3.org/1999/xlink" x="0px" y="0px" viewBox="0 0 1664.2 1141.7"
	 style="enable-background:new 0 0 1664.2 1141.7;" xml:space="preserve">
<style type="text/css">
	.st0{fill:#FFFFFF;}
</style>
<g id="Layer_1-2">
	<g>
		<g>
			<path class="st0" d="M674.5,272.4L380.2,782h-300C12.6,782-24.2,704,17.9,650.9C188.5,435.8,425.7,309.6,674.5,272.4z"/>
			<path class="st0" d="M831.8,49.6c-12.2,0-23.5,3.1-33.6,8.5L831.8,0l33.6,58.1C855.3,52.7,844,49.6,831.8,49.6z"/>
			<path class="st0" d="M901.9,121.6L989,272.4c-52.1-7.8-104.7-11.8-157.3-11.8s-105.1,4-157.3,11.8l87.1-150.9
				c0.8,38.1,31.9,68.7,70.1,68.7S901,159.7,901.9,121.6z"/>
			<path class="st0" d="M1583.3,782h-300L989,272.4c249.5,37.3,487.4,164.1,658.1,380.3C1688.4,705,1649.9,782,1583.3,782
				L1583.3,782z"/>
			<polygon class="st0" points="677.5,512.1 986,512.1 908.9,645.6 831.8,779.2 754.6,645.6 			"/>
		</g>
		<g>
			<path class="st0" d="M234.8,1137.6h-13.6l-21.8-30.2c-5.4,4.8-11,9.3-17,13.5c-6,4.2-12.2,7.8-18.8,10.9
				c-6.6,3.1-13.3,5.5-20.3,7.3c-6.9,1.8-14,2.7-21.1,2.7c-15.5,0-30.1-2.6-43.7-7.8c-13.7-5.2-25.6-12.8-35.8-22.7
				s-18.3-22.1-24.2-36.5c-5.9-14.4-8.9-30.8-8.9-49.2c0-17.2,2.9-32.9,8.9-47.2c5.9-14.3,14-26.7,24.2-37
				c10.2-10.3,22.1-18.3,35.8-24c13.7-5.7,28.2-8.5,43.7-8.5c7.1,0,14.2,0.9,21.2,2.7c7,1.8,13.8,4.2,20.4,7.4s12.9,6.9,18.8,11.1
				c6,4.2,11.6,8.8,16.8,13.8l21.8-26.1h13.6V1137.6L234.8,1137.6z M178.2,1025.4c0-7.7-1.5-15.1-4.4-22.3c-2.9-7.2-7-13.6-12-19.1
				c-5.1-5.6-11-10-17.8-13.4c-6.8-3.4-14-5-21.7-5s-14.9,1.3-21.7,3.9s-12.7,6.5-17.7,11.5c-5,5.1-8.9,11.4-11.8,18.8
				c-2.9,7.5-4.3,16-4.3,25.6s1.4,18.1,4.3,25.6c2.9,7.5,6.8,13.8,11.8,18.8s10.9,8.9,17.7,11.5c6.8,2.6,14,3.9,21.7,3.9
				s14.9-1.7,21.7-5c6.8-3.4,12.7-7.8,17.8-13.4s9.1-11.9,12-19.1C176.7,1040.6,178.2,1033.1,178.2,1025.4L178.2,1025.4z"/>
			<path class="st0" d="M490.6,1137.6H477l-21.8-30.2c-5.4,4.8-11,9.3-17,13.5c-6,4.2-12.2,7.8-18.8,10.9
				c-6.6,3.1-13.3,5.5-20.3,7.3c-6.9,1.8-14,2.7-21.1,2.7c-15.5,0-30.1-2.9-43.7-8.7c-13.6-5.8-25.6-13.9-35.8-24.3
				c-10.2-10.3-18.3-22.6-24.2-36.8s-8.9-29.7-8.9-46.4s3-32,8.9-46.3c5.9-14.3,14-26.6,24.2-37c10.2-10.4,22.2-18.6,35.8-24.5
				c13.6-5.9,28.2-8.8,43.7-8.8c4.9,0,10,0.4,15.3,1.2c5.3,0.8,10.4,2.2,15.4,4c5,1.8,9.7,4.3,14.1,7.3c4.4,3,8.1,6.7,11.1,11.1
				V829.6h56.6L490.6,1137.6L490.6,1137.6z M434,1025.4c0-7.7-1.5-15.1-4.4-22.3c-3-7.2-7-13.6-12-19.1c-5.1-5.6-11-10-17.8-13.4
				c-6.8-3.4-14-5-21.7-5s-14.9,1.4-21.7,4.1c-6.8,2.8-12.7,6.7-17.7,11.8c-5,5.1-9,11.4-11.8,18.8c-2.9,7.4-4.3,15.8-4.3,25.1
				c0,8.1,1.4,15.8,4.3,23.1c2.9,7.3,6.8,13.7,11.8,19.1c5,5.5,10.9,9.8,17.7,13s14,4.7,21.7,4.7s14.9-1.7,21.7-5
				c6.8-3.4,12.7-7.8,17.8-13.4c5.1-5.6,9.1-11.9,12-19.1C432.5,1040.6,434,1033.1,434,1025.4z"/>
			<path class="st0" d="M746.8,1137.6h-13.6l-21.8-30.2c-5.3,4.8-11,9.3-17,13.5c-6,4.2-12.2,7.8-18.8,10.9
				c-6.6,3.1-13.3,5.5-20.3,7.3c-6.9,1.8-14,2.7-21.1,2.7c-15.5,0-30.1-2.6-43.7-7.8c-13.7-5.2-25.6-12.8-35.8-22.7
				s-18.3-22.1-24.2-36.5c-5.9-14.4-8.8-30.8-8.8-49.2c0-17.2,3-32.9,8.8-47.2c5.9-14.3,14-26.7,24.2-37
				c10.2-10.3,22.2-18.3,35.8-24c13.7-5.7,28.2-8.5,43.7-8.5c7.1,0,14.2,0.9,21.2,2.7c7,1.8,13.8,4.2,20.4,7.4
				c6.6,3.2,12.9,6.9,18.8,11.1c6,4.2,11.5,8.8,16.8,13.8l21.8-26.1h13.6V1137.6L746.8,1137.6z M690.2,1025.4
				c0-7.7-1.5-15.1-4.4-22.3c-3-7.2-7-13.6-12-19.1c-5.1-5.6-11-10-17.8-13.4s-14-5-21.7-5s-14.9,1.3-21.7,3.9
				c-6.8,2.6-12.7,6.5-17.7,11.5c-5,5.1-9,11.4-11.8,18.8c-2.9,7.5-4.3,16-4.3,25.6s1.4,18.1,4.3,25.6c2.9,7.5,6.8,13.8,11.8,18.8
				s10.9,8.9,17.7,11.5c6.8,2.6,14,3.9,21.7,3.9s14.9-1.7,21.7-5c6.8-3.4,12.7-7.8,17.8-13.4s9.1-11.9,12-19.1
				C688.7,1040.6,690.2,1033.1,690.2,1025.4L690.2,1025.4z"/>
			<path class="st0" d="M854.6,1137.6h-59.1V842.5h59.1v147.5l109.9-147.5h67.1L938.4,967l93.2,170.6h-67.1l-64.8-119.4l-45.1,60.3
				L854.6,1137.6L854.6,1137.6z"/>
			<path class="st0" d="M1118,1137.6H1059V842.5h59.1V1137.6z"/>
			<path class="st0" d="M1296.6,1137.6h-58.9v-236h-88.7v-59.1h236v59.1h-88.5L1296.6,1137.6L1296.6,1137.6z"/>
			<path class="st0" d="M1640.3,1137.6h-59.1v-59.1h-118.1v59.1h-58.9v-177c0-16.3,3.1-31.7,9.3-46s14.6-26.8,25.2-37.6
				c10.6-10.7,23.1-19.1,37.4-25.3c14.3-6.2,29.7-9.3,46-9.3s31.7,3.1,46,9.3c14.3,6.2,26.8,14.6,37.6,25.3
				c10.7,10.7,19.1,23.2,25.3,37.6c6.2,14.3,9.3,29.7,9.3,46V1137.6z M1581.2,1019.7v-59.1c0-8.1-1.5-15.7-4.6-22.9
				c-3.1-7.2-7.3-13.5-12.7-18.8c-5.3-5.3-11.6-9.6-18.8-12.7c-7.2-3.1-14.8-4.6-22.9-4.6s-15.7,1.5-22.9,4.6
				c-7.2,3.1-13.5,7.3-18.8,12.7s-9.6,11.6-12.7,18.8c-3.1,7.2-4.6,14.8-4.6,22.9v59.1H1581.2L1581.2,1019.7z"/>
		</g>
	</g>
</g>
</svg>
